<?xml version="1.0" encoding="UTF-8" standalone="no"?><svg xmlns="http://www.w3.org/2000/svg" xmlns:xlink="http://www.w3.org/1999/xlink" contentStyleType="text/css" height="316px" preserveAspectRatio="none" style="width:1450px;height:316px;background:#FFFFFF;" version="1.1" viewBox="0 0 1450 316" width="1450px" zoomAndPan="magnify"><defs/><g><!--MD5=[276730948abf0ecb67c7355d125d84f5]
class GenerateMatrix--><g id="elem_GenerateMatrix"><rect codeLine="1" fill="#F1F1F1" height="145.7813" id="GenerateMatrix" rx="2.5" ry="2.5" style="stroke:#181818;stroke-width:0.5;" width="554" x="7" y="164"/><ellipse cx="227.25" cy="180" fill="#ADD1B2" rx="11" ry="11" style="stroke:#181818;stroke-width:1.0;"/><path d="M230.2188,185.6406 Q229.6406,185.9375 229,186.0781 Q228.3594,186.2344 227.6563,186.2344 Q225.1563,186.2344 223.8281,184.5938 Q222.5156,182.9375 222.5156,179.8125 Q222.5156,176.6875 223.8281,175.0313 Q225.1563,173.375 227.6563,173.375 Q228.3594,173.375 229,173.5313 Q229.6563,173.6875 230.2188,173.9844 L230.2188,176.7031 Q229.5938,176.125 229,175.8594 Q228.4063,175.5781 227.7813,175.5781 Q226.4375,175.5781 225.75,176.6563 Q225.0625,177.7188 225.0625,179.8125 Q225.0625,181.9063 225.75,182.9844 Q226.4375,184.0469 227.7813,184.0469 Q228.4063,184.0469 229,183.7813 Q229.5938,183.5 230.2188,182.9219 L230.2188,185.6406 Z " fill="#000000"/><text fill="#000000" font-family="sans-serif" font-size="14" lengthAdjust="spacing" textLength="105" x="247.75" y="184.8467">GenerateMatrix</text><line style="stroke:#181818;stroke-width:0.5;" x1="8" x2="560" y1="196" y2="196"/><rect fill="none" height="6" style="stroke:#C82930;stroke-width:1.0;" width="6" x="15" y="206.6484"/><text fill="#000000" font-family="sans-serif" font-size="14" lengthAdjust="spacing" textLength="132" x="27" y="212.9951">row_size_: uint32_t</text><rect fill="none" height="6" style="stroke:#C82930;stroke-width:1.0;" width="6" x="15" y="222.9453"/><text fill="#000000" font-family="sans-serif" font-size="14" lengthAdjust="spacing" textLength="127" x="27" y="229.292">col_size_: uint32_t</text><rect fill="none" height="6" style="stroke:#C82930;stroke-width:1.0;" width="6" x="15" y="239.2422"/><text fill="#000000" font-family="sans-serif" font-size="14" lengthAdjust="spacing" textLength="159" x="27" y="245.5889">output_file_: std::string</text><line style="stroke:#181818;stroke-width:1.0;" x1="8" x2="560" y1="252.8906" y2="252.8906"/><ellipse cx="18" cy="266.5391" fill="#84BE84" rx="3" ry="3" style="stroke:#038048;stroke-width:1.0;"/><text fill="#000000" font-family="sans-serif" font-size="14" lengthAdjust="spacing" textLength="528" x="27" y="269.8857">GenerateMatrix(row_size: uint32_t, col_size: uint32_t, output_file: std::string)</text><ellipse cx="18" cy="282.8359" fill="#84BE84" rx="3" ry="3" style="stroke:#038048;stroke-width:1.0;"/><text fill="#000000" font-family="sans-serif" font-size="14" lengthAdjust="spacing" textLength="387" x="27" y="286.1826">generate(matrix: std::vector&lt;std::vector&lt;int&gt;&gt;&amp;): void</text><ellipse cx="18" cy="299.1328" fill="#84BE84" rx="3" ry="3" style="stroke:#038048;stroke-width:1.0;"/><text fill="#000000" font-family="sans-serif" font-size="14" lengthAdjust="spacing" textLength="404" x="27" y="302.4795">write_to_file(matrix: std::vector&lt;std::vector&lt;int&gt;&gt;&amp;): void</text></g><!--MD5=[7e432d732ff8ea89fc651ddfdbf65b6f]
class CalculateMatrix--><g id="elem_CalculateMatrix"><rect codeLine="11" fill="#F1F1F1" height="129.4844" id="CalculateMatrix" rx="2.5" ry="2.5" style="stroke:#181818;stroke-width:0.5;" width="847" x="596.5" y="172.5"/><ellipse cx="964.25" cy="188.5" fill="#ADD1B2" rx="11" ry="11" style="stroke:#181818;stroke-width:1.0;"/><path d="M967.2188,194.1406 Q966.6406,194.4375 966,194.5781 Q965.3594,194.7344 964.6563,194.7344 Q962.1563,194.7344 960.8281,193.0938 Q959.5156,191.4375 959.5156,188.3125 Q959.5156,185.1875 960.8281,183.5313 Q962.1563,181.875 964.6563,181.875 Q965.3594,181.875 966,182.0313 Q966.6563,182.1875 967.2188,182.4844 L967.2188,185.2031 Q966.5938,184.625 966,184.3594 Q965.4063,184.0781 964.7813,184.0781 Q963.4375,184.0781 962.75,185.1563 Q962.0625,186.2188 962.0625,188.3125 Q962.0625,190.4063 962.75,191.4844 Q963.4375,192.5469 964.7813,192.5469 Q965.4063,192.5469 966,192.2813 Q966.5938,192 967.2188,191.4219 L967.2188,194.1406 Z " fill="#000000"/><text fill="#000000" font-family="sans-serif" font-size="14" lengthAdjust="spacing" textLength="103" x="984.75" y="193.3467">CalculateMatrix</text><line style="stroke:#181818;stroke-width:0.5;" x1="597.5" x2="1442.5" y1="204.5" y2="204.5"/><rect fill="none" height="6" style="stroke:#C82930;stroke-width:1.0;" width="6" x="604.5" y="215.1484"/><text fill="#000000" font-family="sans-serif" font-size="14" lengthAdjust="spacing" textLength="281" x="616.5" y="221.4951">matrixA_: std::vector&lt;std::vector&lt;int&gt;&gt;</text><rect fill="none" height="6" style="stroke:#C82930;stroke-width:1.0;" width="6" x="604.5" y="231.4453"/><text fill="#000000" font-family="sans-serif" font-size="14" lengthAdjust="spacing" textLength="282" x="616.5" y="237.792">matrixB_: std::vector&lt;std::vector&lt;int&gt;&gt;</text><line style="stroke:#181818;stroke-width:1.0;" x1="597.5" x2="1442.5" y1="245.0938" y2="245.0938"/><ellipse cx="607.5" cy="258.7422" fill="#84BE84" rx="3" ry="3" style="stroke:#038048;stroke-width:1.0;"/><text fill="#000000" font-family="sans-serif" font-size="14" lengthAdjust="spacing" textLength="493" x="616.5" y="262.0889">readMatrixFromFile(filePath: std::string): std::vector&lt;std::vector&lt;int&gt;&gt;</text><ellipse cx="607.5" cy="275.0391" fill="#84BE84" rx="3" ry="3" style="stroke:#038048;stroke-width:1.0;"/><text fill="#000000" font-family="sans-serif" font-size="14" lengthAdjust="spacing" textLength="564" x="616.5" y="278.3857">writeMatrixToFile(matrix: std::vector&lt;std::vector&lt;int&gt;&gt;, filePath: std::string): void</text><ellipse cx="607.5" cy="291.3359" fill="#84BE84" rx="3" ry="3" style="stroke:#038048;stroke-width:1.0;"/><text fill="#000000" font-family="sans-serif" font-size="14" lengthAdjust="spacing" textLength="821" x="616.5" y="294.6826">sum(matrixA: std::vector&lt;std::vector&lt;int&gt;&gt;, matrixB: std::vector&lt;std::vector&lt;int&gt;&gt;): std::vector&lt;std::vector&lt;int&gt;&gt;</text></g><!--MD5=[734e8bd99aa0cb301222290aa807a7c8]
class MatrixCalculatorAdapter--><g id="elem_MatrixCalculatorAdapter"><rect codeLine="20" fill="#F1F1F1" height="96.8906" id="MatrixCalculatorAdapter" rx="2.5" ry="2.5" style="stroke:#181818;stroke-width:0.5;" width="220" x="542" y="7"/><ellipse cx="568.7" cy="23" fill="#ADD1B2" rx="11" ry="11" style="stroke:#181818;stroke-width:1.0;"/><path d="M571.6688,28.6406 Q571.0906,28.9375 570.45,29.0781 Q569.8094,29.2344 569.1063,29.2344 Q566.6063,29.2344 565.2781,27.5938 Q563.9656,25.9375 563.9656,22.8125 Q563.9656,19.6875 565.2781,18.0313 Q566.6063,16.375 569.1063,16.375 Q569.8094,16.375 570.45,16.5313 Q571.1063,16.6875 571.6688,16.9844 L571.6688,19.7031 Q571.0438,19.125 570.45,18.8594 Q569.8563,18.5781 569.2313,18.5781 Q567.8875,18.5781 567.2,19.6563 Q566.5125,20.7188 566.5125,22.8125 Q566.5125,24.9063 567.2,25.9844 Q567.8875,27.0469 569.2313,27.0469 Q569.8563,27.0469 570.45,26.7813 Q571.0438,26.5 571.6688,25.9219 L571.6688,28.6406 Z " fill="#000000"/><text fill="#000000" font-family="sans-serif" font-size="14" lengthAdjust="spacing" textLength="162" x="585.3" y="27.8467">MatrixCalculatorAdapter</text><line style="stroke:#181818;stroke-width:0.5;" x1="543" x2="761" y1="39" y2="39"/><rect fill="none" height="6" style="stroke:#C82930;stroke-width:1.0;" width="6" x="550" y="49.6484"/><text fill="#000000" font-family="sans-serif" font-size="14" lengthAdjust="spacing" textLength="194" x="562" y="55.9951">CalculateMatrix calc_matrix_;</text><line style="stroke:#181818;stroke-width:1.0;" x1="543" x2="761" y1="63.2969" y2="63.2969"/><ellipse cx="553" cy="76.9453" fill="#84BE84" rx="3" ry="3" style="stroke:#038048;stroke-width:1.0;"/><text fill="#000000" font-family="sans-serif" font-size="14" lengthAdjust="spacing" textLength="110" x="562" y="80.292">generate(): void</text><ellipse cx="553" cy="93.2422" fill="#84BE84" rx="3" ry="3" style="stroke:#038048;stroke-width:1.0;"/><text fill="#000000" font-family="sans-serif" font-size="14" lengthAdjust="spacing" textLength="133" x="562" y="96.5889">write_to_file(): voud</text></g><!--MD5=[6ccb032fa2f44a2bd6b0a2bff3edece7]
link MatrixCalculatorAdapter to GenerateMatrix--><g id="link_MatrixCalculatorAdapter_GenerateMatrix"><path codeLine="27" d="M554.35,104.13 C518.23,121.75 476.38,142.16 436.55,161.59 " fill="none" id="MatrixCalculatorAdapter-to-GenerateMatrix" style="stroke:#181818;stroke-width:1.0;"/><polygon fill="#181818" points="431.71,163.95,441.5518,163.5783,436.1992,161.7483,438.0291,156.3956,431.71,163.95" style="stroke:#181818;stroke-width:1.0;"/></g><!--MD5=[d1a375dddb5f6244d3b45820b473bb3c]
link MatrixCalculatorAdapter to CalculateMatrix--><g id="link_MatrixCalculatorAdapter_CalculateMatrix"><path codeLine="28" d="M749.65,104.13 C788.95,123.3 835.05,145.79 877.94,166.71 " fill="none" id="MatrixCalculatorAdapter-to-CalculateMatrix" style="stroke:#181818;stroke-width:1.0;"/><polygon fill="none" points="889.65,172.42,886.0109,166.1945,878.8647,167.1592,882.5037,173.3847,889.65,172.42" style="stroke:#181818;stroke-width:1.0;"/></g><!--MD5=[ece0fc05dede5fe41c4c6a6b784169f9]
@startuml
class GenerateMatrix {
    - row_size_: uint32_t
    - col_size_: uint32_t
    - output_file_: std::string
    - -
    + GenerateMatrix(row_size: uint32_t, col_size: uint32_t, output_file: std::string)
    + generate(matrix: std::vector<std::vector<int>>&): void
    + write_to_file(matrix: std::vector<std::vector<int>>&): void
}

class CalculateMatrix {
    - matrixA_: std::vector<std::vector<int>>
    - matrixB_: std::vector<std::vector<int>>
    - -
    + readMatrixFromFile(filePath: std::string): std::vector<std::vector<int>>
    + writeMatrixToFile(matrix: std::vector<std::vector<int>>, filePath: std::string): void
    + sum(matrixA: std::vector<std::vector<int>>, matrixB: std::vector<std::vector<int>>): std::vector<std::vector<int>>
}

class MatrixCalculatorAdapter {
    - CalculateMatrix calc_matrix_;
    - -
    + generate(): void
    + write_to_file(): voud
}

MatrixCalculatorAdapter - -> GenerateMatrix
MatrixCalculatorAdapter - -o CalculateMatrix
@enduml

PlantUML version 1.2022.7(Mon Aug 22 17:01:30 UTC 2022)
(GPL source distribution)
Java Runtime: OpenJDK Runtime Environment
JVM: OpenJDK 64-Bit Server VM
Default Encoding: UTF-8
Language: en
Country: null
--></g></svg>